Coordinates
version=1
nRows=18
nColumns=22
inDegrees=yes

Units are S.I. units (second, meters, Newtons, ...)
If the header above contains a line with 'inDegrees', this indicates whether rotational values are in degrees (yes) or radians (no).

endheader
time	pelvis_tilt	pelvis_list	pelvis_rotation	pelvis_tx	pelvis_ty	pelvis_tz	hip_flexion_r	hip_adduction_r	hip_rotation_r	knee_angle_r	ankle_angle_r	subtalar_angle_r	hip_flexion_l	hip_adduction_l	hip_rotation_l	knee_angle_l	ankle_angle_l	subtalar_angle_l	lumbar_extension	lumbar_bending	lumbar_rotation
      2.90000000	     -9.80169675	     -3.27521918	    -25.63382694	     -0.22355916	      0.95456244	      0.49076860	     33.75612001	      7.76929699	      6.80926350	    -29.09958936	     10.32477556	      5.78311357	     11.28587988	     -6.49074255	      2.59330867	    -57.01727404	      9.06641843	     -2.96904167	     -0.55869454	      7.48590156	      2.60077750
      2.91000000	    -10.10791262	     -3.65945512	    -24.88817230	     -0.21746504	      0.95579045	      0.49535227	     33.27056589	      8.07665400	      6.33326720	    -28.85715365	     10.58900390	      5.03479487	     12.81528526	     -7.35711369	      2.04655091	    -59.23546072	      7.84247712	     -3.48225288	     -0.46636777	      7.84000119	      2.72406015
      2.92000000	    -10.37391703	     -4.01462926	    -24.11802036	     -0.21150003	      0.95705373	      0.49970113	     32.76878177	      8.34359357	      5.89051118	    -28.58272221	     10.79978734	      4.27674139	     14.36170710	     -8.16723301	      1.52972534	    -61.30665952	      6.90365656	     -3.89243196	     -0.41550018	      8.13795045	      2.82794302
      2.93000000	    -10.60157527	     -4.34702375	    -23.33213919	     -0.20561101	      0.95834100	      0.50378600	     32.24921477	      8.57033692	      5.45772302	    -28.28244999	     10.97925882	      3.54282782	     15.90068407	     -8.90357581	      1.05438091	    -63.19133559	      6.31925409	     -4.19260697	     -0.40585132	      8.40147445	      2.94776704
      2.94000000	    -10.77888310	     -4.65013237	    -22.54932490	     -0.19978498	      0.95965925	      0.50763792	     31.70602798	      8.75239838	      5.03666612	    -27.96892432	     11.14733850	      2.86524888	     17.39684474	     -9.54128969	      0.61099539	    -64.85326923	      6.09036178	     -4.41022355	     -0.44639316	      8.61897422	      3.09349704
      2.95000000	    -10.90642192	     -4.91915880	    -21.77875386	     -0.19399510	      0.96100851	      0.51122859	     31.13817357	      8.88077230	      4.61442417	    -27.64308423	     11.30974382	      2.27935027	     18.83450120	    -10.05294205	      0.20748116	    -66.27047196	      6.17981598	     -4.57635464	     -0.53649649	      8.79706318	      3.28233353
      2.96000000	    -10.97499382	     -5.16777885	    -21.02664105	     -0.18820815	      0.96242287	      0.51457083	     30.50594389	      8.97129861	      4.23471326	    -27.27215745	     11.50884732	      1.91976292	     20.18041904	    -10.43225348	     -0.14530954	    -67.42420301	      6.54871262	     -4.68049265	     -0.68797976	      8.95273563	      3.49914146
      2.97000000	    -11.02628134	     -5.34195523	    -20.30091638	     -0.18244079	      0.96377987	      0.51765406	     29.90497051	      8.97665749	      3.80877672	    -26.91724213	     11.71627211	      1.48476011	     21.49337208	    -10.63791521	     -0.46823691	    -68.31948477	      7.04053388	     -4.74215465	     -0.82614843	      9.04655270	      3.74875240
      2.98000000	    -11.03981573	     -5.47286866	    -19.61661460	     -0.17672743	      0.96511208	      0.52050303	     29.29945617	      8.93325775	      3.38905811	    -26.58039735	     11.95093612	      1.08152062	     22.73553380	    -10.69867794	     -0.76752802	    -68.96687289	      7.58949785	     -4.68756059	     -1.00110396	      9.10503753	      4.05233754
      2.99000000	    -11.02271140	     -5.57266849	    -18.96868549	     -0.17101852	      0.96643922	      0.52318628	     28.66334941	      8.85460094	      2.97732362	    -26.21684024	     12.21504823	      0.81616958	     23.89247655	    -10.65031197	     -1.05886073	    -69.35224544	      8.16429799	     -4.49291843	     -1.19238708	      9.13429953	      4.38006622
      3.00000000	    -10.99929228	     -5.66007724	    -18.34610489	     -0.16538451	      0.96768276	      0.52566995	     28.03493115	      8.76322756	      2.55934032	    -25.85486370	     12.47795934	      0.57130478	     25.00852257	    -10.51754984	     -1.30953251	    -69.52458694	      8.70339546	     -4.05894456	     -1.38867242	      9.16872270	      4.74112607
      3.01000000	    -10.96495688	     -5.73056410	    -17.76571582	     -0.15981848	      0.96886113	      0.52804665	     27.40488637	      8.66586367	      2.15825444	    -25.49053885	     12.75774374	      0.39828177	     26.06247636	    -10.33610511	     -1.57411534	    -69.47717453	      9.22336660	     -3.44411980	     -1.59056276	      9.18876049	      5.14113233
      3.02000000	    -10.93108807	     -5.80219604	    -17.20966634	     -0.15428628	      0.96996004	      0.53036314	     26.77263278	      8.57838928	      1.74602715	    -25.11361709	     13.04053223	      0.26961600	     27.06179239	    -10.15702475	     -1.86369424	    -69.22497265	      9.74362277	     -2.70400545	     -1.78041592	      9.21024373	      5.55194435
      3.03000000	    -10.90143455	     -5.87860120	    -16.69261170	     -0.14882122	      0.97096383	      0.53263371	     26.14524247	      8.51671991	      1.36731621	    -24.73027208	     13.31639605	      0.15468213	     28.01364333	    -10.00210394	     -2.18815092	    -68.79604613	     10.28092970	     -1.87653264	     -1.96355363	      9.23970111	      6.01685532
      3.04000000	    -10.87068117	     -5.97439064	    -16.19247746	     -0.14335562	      0.97188923	      0.53490753	     25.50900279	      8.48812920	      0.99004052	    -24.33943638	     13.58724738	      0.04370485	     28.90546668	     -9.90657790	     -2.55528732	    -68.19789112	     10.85900090	     -1.04102335	     -2.13445923	      9.27859847	      6.49488686
      3.05000000	    -10.84030135	     -6.08531768	    -15.71568277	     -0.13788090	      0.97273482	      0.53718846	     24.86672037	      8.49244224	      0.62828212	    -23.94147321	     13.85263736	     -0.07305732	     29.73992556	     -9.88322377	     -2.98429664	    -67.44862856	     11.47842627	     -0.26766457	     -2.29197648	      9.32605109	      6.98558115
      3.06000000	    -10.80588256	     -6.21588111	    -15.24646641	     -0.13238293	      0.97350858	      0.53946148	     24.21393953	      8.52873343	      0.27508688	    -23.53827415	     14.11153727	     -0.19927556	     30.51934273	     -9.93293332	     -3.45864009	    -66.56865676	     12.12027273	      0.39098323	     -2.44045554	      9.38344150	      7.47424210
      3.07000000	    -10.76551822	     -6.36262629	    -14.77611263	     -0.12684601	      0.97421511	      0.54169936	     23.55123757	      8.58962676	     -0.07005671	    -23.13346157	     14.36566358	     -0.33971255	     31.24703943	    -10.04710691	     -3.96906078	    -65.57375030	     12.76133452	      0.90886691	     -2.57923428	      9.44924683	      7.94654185
